<?xml version="1.0" encoding="utf-8"?>
<svg xmlns="http://www.w3.org/2000/svg" xmlns:xlink="http://www.w3.org/1999/xlink" xml:space="preserve" width="990" height="1237.5" viewBox="0 0 990 1237.5"><g id="back" fill="#fff" transform="scale(41.25)"><path d="M1.3,24l21.3,0c0.7,0,1.3-0.6,1.3-1.3l0-21.3C24,0.6,23.4,0,22.7,0L1.3,0C0.6,0,0,0.6,0,1.3l0,21.3 C0,23.4,0.6,24,1.3,24z M1,2c0-0.6,0.5-1,1-1l20,0c0.6,0,1,0.5,1,1v20c0,0.6-0.5,1-1,1L2,23c-0.6,0-1-0.5-1-1V2z"/><path d="M1,30h22c0.5,0,1-0.4,1-1v-3c0-0.5-0.4-1-1-1H13l-1-1l-1,1H1c-0.5,0-1,0.4-1,1v3C0,29.6,0.4,30,1,30z"/></g><defs><linearGradient id="pattern-mask" x1="0%" y1="0%" x2="12%" y2="100%" gradientUnits="userSpaceOnUse"><stop offset="0%" stop-color="#df8331"/><stop offset="100%" stop-color="#da4623"/></linearGradient>
<mask id="qrmask"><g fill="#ffffff"><g transform="scale(41.25)" fill="#fff"><path d="M1.3,24l21.3,0c0.7,0,1.3-0.6,1.3-1.3l0-21.3C24,0.6,23.4,0,22.7,0L1.3,0C0.6,0,0,0.6,0,1.3l0,21.3 C0,23.4,0.6,24,1.3,24z M1,2c0-0.6,0.5-1,1-1l20,0c0.6,0,1,0.5,1,1v20c0,0.6-0.5,1-1,1L2,23c-0.6,0-1-0.5-1-1V2z"/><path d="M1,30h22c0.5,0,1-0.4,1-1v-3c0-0.5-0.4-1-1-1H13l-1-1l-1,1H1c-0.5,0-1,0.4-1,1v3C0,29.6,0.4,30,1,30z"/></g>
<g>
<g transform="translate(291,99) scale(4.12)"><circle cx="3" cy="3" r="3"/></g>
<g transform="translate(315,99) scale(4.12)"><circle cx="3" cy="3" r="3"/></g>
<g transform="translate(339,99) scale(4.12)"><circle cx="3" cy="3" r="3"/></g>
<g transform="translate(387,99) scale(4.12)"><circle cx="3" cy="3" r="3"/></g>
<g transform="translate(411,99) scale(4.12)"><circle cx="3" cy="3" r="3"/></g>
<g transform="translate(507,99) scale(4.12)"><circle cx="3" cy="3" r="3"/></g>
<g transform="translate(531,99) scale(4.12)"><circle cx="3" cy="3" r="3"/></g>
<g transform="translate(603,99) scale(4.12)"><circle cx="3" cy="3" r="3"/></g>
<g transform="translate(651,99) scale(4.12)"><circle cx="3" cy="3" r="3"/></g>
<g transform="translate(675,99) scale(4.12)"><circle cx="3" cy="3" r="3"/></g>
<g transform="translate(291,123) scale(4.12)"><circle cx="3" cy="3" r="3"/></g>
<g transform="translate(363,123) scale(4.12)"><circle cx="3" cy="3" r="3"/></g>
<g transform="translate(387,123) scale(4.12)"><circle cx="3" cy="3" r="3"/></g>
<g transform="translate(459,123) scale(4.12)"><circle cx="3" cy="3" r="3"/></g>
<g transform="translate(555,123) scale(4.12)"><circle cx="3" cy="3" r="3"/></g>
<g transform="translate(675,123) scale(4.12)"><circle cx="3" cy="3" r="3"/></g>
<g transform="translate(291,147) scale(4.12)"><circle cx="3" cy="3" r="3"/></g>
<g transform="translate(315,147) scale(4.12)"><circle cx="3" cy="3" r="3"/></g>
<g transform="translate(363,147) scale(4.12)"><circle cx="3" cy="3" r="3"/></g>
<g transform="translate(459,147) scale(4.12)"><circle cx="3" cy="3" r="3"/></g>
<g transform="translate(531,147) scale(4.12)"><circle cx="3" cy="3" r="3"/></g>
<g transform="translate(579,147) scale(4.12)"><circle cx="3" cy="3" r="3"/></g>
<g transform="translate(603,147) scale(4.12)"><circle cx="3" cy="3" r="3"/></g>
<g transform="translate(651,147) scale(4.12)"><circle cx="3" cy="3" r="3"/></g>
<g transform="translate(675,147) scale(4.12)"><circle cx="3" cy="3" r="3"/></g>
<g transform="translate(339,171) scale(4.12)"><circle cx="3" cy="3" r="3"/></g>
<g transform="translate(411,171) scale(4.12)"><circle cx="3" cy="3" r="3"/></g>
<g transform="translate(555,171) scale(4.12)"><circle cx="3" cy="3" r="3"/></g>
<g transform="translate(627,171) scale(4.12)"><circle cx="3" cy="3" r="3"/></g>
<g transform="translate(651,171) scale(4.12)"><circle cx="3" cy="3" r="3"/></g>
<g transform="translate(315,195) scale(4.12)"><circle cx="3" cy="3" r="3"/></g>
<g transform="translate(339,195) scale(4.12)"><circle cx="3" cy="3" r="3"/></g>
<g transform="translate(363,195) scale(4.12)"><circle cx="3" cy="3" r="3"/></g>
<g transform="translate(387,195) scale(4.12)"><circle cx="3" cy="3" r="3"/></g>
<g transform="translate(435,195) scale(4.12)"><circle cx="3" cy="3" r="3"/></g>
<g transform="translate(459,195) scale(4.12)"><circle cx="3" cy="3" r="3"/></g>
<g transform="translate(507,195) scale(4.12)"><circle cx="3" cy="3" r="3"/></g>
<g transform="translate(603,195) scale(4.12)"><circle cx="3" cy="3" r="3"/></g>
<g transform="translate(675,195) scale(4.12)"><circle cx="3" cy="3" r="3"/></g>
<g transform="translate(291,219) scale(4.12)"><circle cx="3" cy="3" r="3"/></g>
<g transform="translate(315,219) scale(4.12)"><circle cx="3" cy="3" r="3"/></g>
<g transform="translate(363,219) scale(4.12)"><circle cx="3" cy="3" r="3"/></g>
<g transform="translate(387,219) scale(4.12)"><circle cx="3" cy="3" r="3"/></g>
<g transform="translate(531,219) scale(4.12)"><circle cx="3" cy="3" r="3"/></g>
<g transform="translate(603,219) scale(4.12)"><circle cx="3" cy="3" r="3"/></g>
<g transform="translate(627,219) scale(4.12)"><circle cx="3" cy="3" r="3"/></g>
<g transform="translate(291,243) scale(4.12)"><circle cx="3" cy="3" r="3"/></g>
<g transform="translate(339,243) scale(4.12)"><circle cx="3" cy="3" r="3"/></g>
<g transform="translate(387,243) scale(4.12)"><circle cx="3" cy="3" r="3"/></g>
<g transform="translate(435,243) scale(4.12)"><circle cx="3" cy="3" r="3"/></g>
<g transform="translate(483,243) scale(4.12)"><circle cx="3" cy="3" r="3"/></g>
<g transform="translate(531,243) scale(4.12)"><circle cx="3" cy="3" r="3"/></g>
<g transform="translate(579,243) scale(4.12)"><circle cx="3" cy="3" r="3"/></g>
<g transform="translate(627,243) scale(4.12)"><circle cx="3" cy="3" r="3"/></g>
<g transform="translate(675,243) scale(4.12)"><circle cx="3" cy="3" r="3"/></g>
<g transform="translate(291,267) scale(4.12)"><circle cx="3" cy="3" r="3"/></g>
<g transform="translate(315,267) scale(4.12)"><circle cx="3" cy="3" r="3"/></g>
<g transform="translate(483,267) scale(4.12)"><circle cx="3" cy="3" r="3"/></g>
<g transform="translate(507,267) scale(4.12)"><circle cx="3" cy="3" r="3"/></g>
<g transform="translate(531,267) scale(4.12)"><circle cx="3" cy="3" r="3"/></g>
<g transform="translate(603,267) scale(4.12)"><circle cx="3" cy="3" r="3"/></g>
<g transform="translate(627,267) scale(4.12)"><circle cx="3" cy="3" r="3"/></g>
<g transform="translate(675,267) scale(4.12)"><circle cx="3" cy="3" r="3"/></g>
<g transform="translate(147,291) scale(4.12)"><circle cx="3" cy="3" r="3"/></g>
<g transform="translate(171,291) scale(4.12)"><circle cx="3" cy="3" r="3"/></g>
<g transform="translate(195,291) scale(4.12)"><circle cx="3" cy="3" r="3"/></g>
<g transform="translate(243,291) scale(4.12)"><circle cx="3" cy="3" r="3"/></g>
<g transform="translate(291,291) scale(4.12)"><circle cx="3" cy="3" r="3"/></g>
<g transform="translate(387,291) scale(4.12)"><circle cx="3" cy="3" r="3"/></g>
<g transform="translate(459,291) scale(4.12)"><circle cx="3" cy="3" r="3"/></g>
<g transform="translate(555,291) scale(4.12)"><circle cx="3" cy="3" r="3"/></g>
<g transform="translate(627,291) scale(4.12)"><circle cx="3" cy="3" r="3"/></g>
<g transform="translate(675,291) scale(4.12)"><circle cx="3" cy="3" r="3"/></g>
<g transform="translate(699,291) scale(4.12)"><circle cx="3" cy="3" r="3"/></g>
<g transform="translate(723,291) scale(4.12)"><circle cx="3" cy="3" r="3"/></g>
<g transform="translate(747,291) scale(4.12)"><circle cx="3" cy="3" r="3"/></g>
<g transform="translate(819,291) scale(4.12)"><circle cx="3" cy="3" r="3"/></g>
<g transform="translate(843,291) scale(4.12)"><circle cx="3" cy="3" r="3"/></g>
<g transform="translate(867,291) scale(4.12)"><circle cx="3" cy="3" r="3"/></g>
<g transform="translate(147,315) scale(4.12)"><circle cx="3" cy="3" r="3"/></g>
<g transform="translate(219,315) scale(4.12)"><circle cx="3" cy="3" r="3"/></g>
<g transform="translate(315,315) scale(4.12)"><circle cx="3" cy="3" r="3"/></g>
<g transform="translate(339,315) scale(4.12)"><circle cx="3" cy="3" r="3"/></g>
<g transform="translate(387,315) scale(4.12)"><circle cx="3" cy="3" r="3"/></g>
<g transform="translate(483,315) scale(4.12)"><circle cx="3" cy="3" r="3"/></g>
<g transform="translate(531,315) scale(4.12)"><circle cx="3" cy="3" r="3"/></g>
<g transform="translate(555,315) scale(4.12)"><circle cx="3" cy="3" r="3"/></g>
<g transform="translate(579,315) scale(4.12)"><circle cx="3" cy="3" r="3"/></g>
<g transform="translate(627,315) scale(4.12)"><circle cx="3" cy="3" r="3"/></g>
<g transform="translate(651,315) scale(4.12)"><circle cx="3" cy="3" r="3"/></g>
<g transform="translate(699,315) scale(4.12)"><circle cx="3" cy="3" r="3"/></g>
<g transform="translate(723,315) scale(4.12)"><circle cx="3" cy="3" r="3"/></g>
<g transform="translate(819,315) scale(4.12)"><circle cx="3" cy="3" r="3"/></g>
<g transform="translate(867,315) scale(4.12)"><circle cx="3" cy="3" r="3"/></g>
<g transform="translate(123,339) scale(4.12)"><circle cx="3" cy="3" r="3"/></g>
<g transform="translate(195,339) scale(4.12)"><circle cx="3" cy="3" r="3"/></g>
<g transform="translate(219,339) scale(4.12)"><circle cx="3" cy="3" r="3"/></g>
<g transform="translate(243,339) scale(4.12)"><circle cx="3" cy="3" r="3"/></g>
<g transform="translate(267,339) scale(4.12)"><circle cx="3" cy="3" r="3"/></g>
<g transform="translate(339,339) scale(4.12)"><circle cx="3" cy="3" r="3"/></g>
<g transform="translate(387,339) scale(4.12)"><circle cx="3" cy="3" r="3"/></g>
<g transform="translate(459,339) scale(4.12)"><circle cx="3" cy="3" r="3"/></g>
<g transform="translate(483,339) scale(4.12)"><circle cx="3" cy="3" r="3"/></g>
<g transform="translate(507,339) scale(4.12)"><circle cx="3" cy="3" r="3"/></g>
<g transform="translate(531,339) scale(4.12)"><circle cx="3" cy="3" r="3"/></g>
<g transform="translate(555,339) scale(4.12)"><circle cx="3" cy="3" r="3"/></g>
<g transform="translate(627,339) scale(4.12)"><circle cx="3" cy="3" r="3"/></g>
<g transform="translate(675,339) scale(4.12)"><circle cx="3" cy="3" r="3"/></g>
<g transform="translate(747,339) scale(4.12)"><circle cx="3" cy="3" r="3"/></g>
<g transform="translate(795,339) scale(4.12)"><circle cx="3" cy="3" r="3"/></g>
<g transform="translate(819,339) scale(4.12)"><circle cx="3" cy="3" r="3"/></g>
<g transform="translate(843,339) scale(4.12)"><circle cx="3" cy="3" r="3"/></g>
<g transform="translate(99,363) scale(4.12)"><circle cx="3" cy="3" r="3"/></g>
<g transform="translate(123,363) scale(4.12)"><circle cx="3" cy="3" r="3"/></g>
<g transform="translate(195,363) scale(4.12)"><circle cx="3" cy="3" r="3"/></g>
<g transform="translate(267,363) scale(4.12)"><circle cx="3" cy="3" r="3"/></g>
<g transform="translate(315,363) scale(4.12)"><circle cx="3" cy="3" r="3"/></g>
<g transform="translate(411,363) scale(4.12)"><circle cx="3" cy="3" r="3"/></g>
<g transform="translate(435,363) scale(4.12)"><circle cx="3" cy="3" r="3"/></g>
<g transform="translate(483,363) scale(4.12)"><circle cx="3" cy="3" r="3"/></g>
<g transform="translate(507,363) scale(4.12)"><circle cx="3" cy="3" r="3"/></g>
<g transform="translate(531,363) scale(4.12)"><circle cx="3" cy="3" r="3"/></g>
<g transform="translate(555,363) scale(4.12)"><circle cx="3" cy="3" r="3"/></g>
<g transform="translate(579,363) scale(4.12)"><circle cx="3" cy="3" r="3"/></g>
<g transform="translate(675,363) scale(4.12)"><circle cx="3" cy="3" r="3"/></g>
<g transform="translate(723,363) scale(4.12)"><circle cx="3" cy="3" r="3"/></g>
<g transform="translate(795,363) scale(4.12)"><circle cx="3" cy="3" r="3"/></g>
<g transform="translate(819,363) scale(4.12)"><circle cx="3" cy="3" r="3"/></g>
<g transform="translate(99,387) scale(4.12)"><circle cx="3" cy="3" r="3"/></g>
<g transform="translate(123,387) scale(4.12)"><circle cx="3" cy="3" r="3"/></g>
<g transform="translate(195,387) scale(4.12)"><circle cx="3" cy="3" r="3"/></g>
<g transform="translate(243,387) scale(4.12)"><circle cx="3" cy="3" r="3"/></g>
<g transform="translate(315,387) scale(4.12)"><circle cx="3" cy="3" r="3"/></g>
<g transform="translate(411,387) scale(4.12)"><circle cx="3" cy="3" r="3"/></g>
<g transform="translate(435,387) scale(4.12)"><circle cx="3" cy="3" r="3"/></g>
<g transform="translate(459,387) scale(4.12)"><circle cx="3" cy="3" r="3"/></g>
<g transform="translate(483,387) scale(4.12)"><circle cx="3" cy="3" r="3"/></g>
<g transform="translate(603,387) scale(4.12)"><circle cx="3" cy="3" r="3"/></g>
<g transform="translate(627,387) scale(4.12)"><circle cx="3" cy="3" r="3"/></g>
<g transform="translate(651,387) scale(4.12)"><circle cx="3" cy="3" r="3"/></g>
<g transform="translate(675,387) scale(4.12)"><circle cx="3" cy="3" r="3"/></g>
<g transform="translate(699,387) scale(4.12)"><circle cx="3" cy="3" r="3"/></g>
<g transform="translate(747,387) scale(4.12)"><circle cx="3" cy="3" r="3"/></g>
<g transform="translate(795,387) scale(4.12)"><circle cx="3" cy="3" r="3"/></g>
<g transform="translate(99,411) scale(4.12)"><circle cx="3" cy="3" r="3"/></g>
<g transform="translate(123,411) scale(4.12)"><circle cx="3" cy="3" r="3"/></g>
<g transform="translate(171,411) scale(4.12)"><circle cx="3" cy="3" r="3"/></g>
<g transform="translate(219,411) scale(4.12)"><circle cx="3" cy="3" r="3"/></g>
<g transform="translate(267,411) scale(4.12)"><circle cx="3" cy="3" r="3"/></g>
<g transform="translate(291,411) scale(4.12)"><circle cx="3" cy="3" r="3"/></g>
<g transform="translate(363,411) scale(4.12)"><circle cx="3" cy="3" r="3"/></g>
<g transform="translate(411,411) scale(4.12)"><circle cx="3" cy="3" r="3"/></g>
<g transform="translate(435,411) scale(4.12)"><circle cx="3" cy="3" r="3"/></g>
<g transform="translate(459,411) scale(4.12)"><circle cx="3" cy="3" r="3"/></g>
<g transform="translate(651,411) scale(4.12)"><circle cx="3" cy="3" r="3"/></g>
<g transform="translate(723,411) scale(4.12)"><circle cx="3" cy="3" r="3"/></g>
<g transform="translate(771,411) scale(4.12)"><circle cx="3" cy="3" r="3"/></g>
<g transform="translate(795,411) scale(4.12)"><circle cx="3" cy="3" r="3"/></g>
<g transform="translate(819,411) scale(4.12)"><circle cx="3" cy="3" r="3"/></g>
<g transform="translate(867,411) scale(4.12)"><circle cx="3" cy="3" r="3"/></g>
<g transform="translate(99,435) scale(4.12)"><circle cx="3" cy="3" r="3"/></g>
<g transform="translate(123,435) scale(4.12)"><circle cx="3" cy="3" r="3"/></g>
<g transform="translate(147,435) scale(4.12)"><circle cx="3" cy="3" r="3"/></g>
<g transform="translate(195,435) scale(4.12)"><circle cx="3" cy="3" r="3"/></g>
<g transform="translate(243,435) scale(4.12)"><circle cx="3" cy="3" r="3"/></g>
<g transform="translate(267,435) scale(4.12)"><circle cx="3" cy="3" r="3"/></g>
<g transform="translate(291,435) scale(4.12)"><circle cx="3" cy="3" r="3"/></g>
<g transform="translate(315,435) scale(4.12)"><circle cx="3" cy="3" r="3"/></g>
<g transform="translate(339,435) scale(4.12)"><circle cx="3" cy="3" r="3"/></g>
<g transform="translate(363,435) scale(4.12)"><circle cx="3" cy="3" r="3"/></g>
<g transform="translate(579,435) scale(4.12)"><circle cx="3" cy="3" r="3"/></g>
<g transform="translate(627,435) scale(4.12)"><circle cx="3" cy="3" r="3"/></g>
<g transform="translate(699,435) scale(4.12)"><circle cx="3" cy="3" r="3"/></g>
<g transform="translate(723,435) scale(4.12)"><circle cx="3" cy="3" r="3"/></g>
<g transform="translate(747,435) scale(4.12)"><circle cx="3" cy="3" r="3"/></g>
<g transform="translate(771,435) scale(4.12)"><circle cx="3" cy="3" r="3"/></g>
<g transform="translate(795,435) scale(4.12)"><circle cx="3" cy="3" r="3"/></g>
<g transform="translate(819,435) scale(4.12)"><circle cx="3" cy="3" r="3"/></g>
<g transform="translate(843,435) scale(4.12)"><circle cx="3" cy="3" r="3"/></g>
<g transform="translate(99,459) scale(4.12)"><circle cx="3" cy="3" r="3"/></g>
<g transform="translate(123,459) scale(4.12)"><circle cx="3" cy="3" r="3"/></g>
<g transform="translate(147,459) scale(4.12)"><circle cx="3" cy="3" r="3"/></g>
<g transform="translate(171,459) scale(4.12)"><circle cx="3" cy="3" r="3"/></g>
<g transform="translate(267,459) scale(4.12)"><circle cx="3" cy="3" r="3"/></g>
<g transform="translate(291,459) scale(4.12)"><circle cx="3" cy="3" r="3"/></g>
<g transform="translate(339,459) scale(4.12)"><circle cx="3" cy="3" r="3"/></g>
<g transform="translate(363,459) scale(4.12)"><circle cx="3" cy="3" r="3"/></g>
<g transform="translate(483,459) scale(4.12)"><circle cx="3" cy="3" r="3"/></g>
<g transform="translate(555,459) scale(4.12)"><circle cx="3" cy="3" r="3"/></g>
<g transform="translate(603,459) scale(4.12)"><circle cx="3" cy="3" r="3"/></g>
<g transform="translate(627,459) scale(4.12)"><circle cx="3" cy="3" r="3"/></g>
<g transform="translate(723,459) scale(4.12)"><circle cx="3" cy="3" r="3"/></g>
<g transform="translate(771,459) scale(4.12)"><circle cx="3" cy="3" r="3"/></g>
<g transform="translate(795,459) scale(4.12)"><circle cx="3" cy="3" r="3"/></g>
<g transform="translate(819,459) scale(4.12)"><circle cx="3" cy="3" r="3"/></g>
<g transform="translate(99,483) scale(4.12)"><circle cx="3" cy="3" r="3"/></g>
<g transform="translate(123,483) scale(4.12)"><circle cx="3" cy="3" r="3"/></g>
<g transform="translate(147,483) scale(4.12)"><circle cx="3" cy="3" r="3"/></g>
<g transform="translate(171,483) scale(4.12)"><circle cx="3" cy="3" r="3"/></g>
<g transform="translate(195,483) scale(4.12)"><circle cx="3" cy="3" r="3"/></g>
<g transform="translate(219,483) scale(4.12)"><circle cx="3" cy="3" r="3"/></g>
<g transform="translate(243,483) scale(4.12)"><circle cx="3" cy="3" r="3"/></g>
<g transform="translate(267,483) scale(4.12)"><circle cx="3" cy="3" r="3"/></g>
<g transform="translate(291,483) scale(4.12)"><circle cx="3" cy="3" r="3"/></g>
<g transform="translate(315,483) scale(4.12)"><circle cx="3" cy="3" r="3"/></g>
<g transform="translate(435,483) scale(4.12)"><circle cx="3" cy="3" r="3"/></g>
<g transform="translate(459,483) scale(4.12)"><circle cx="3" cy="3" r="3"/></g>
<g transform="translate(507,483) scale(4.12)"><circle cx="3" cy="3" r="3"/></g>
<g transform="translate(699,483) scale(4.12)"><circle cx="3" cy="3" r="3"/></g>
<g transform="translate(747,483) scale(4.12)"><circle cx="3" cy="3" r="3"/></g>
<g transform="translate(771,483) scale(4.12)"><circle cx="3" cy="3" r="3"/></g>
<g transform="translate(795,483) scale(4.12)"><circle cx="3" cy="3" r="3"/></g>
<g transform="translate(843,483) scale(4.12)"><circle cx="3" cy="3" r="3"/></g>
<g transform="translate(867,483) scale(4.12)"><circle cx="3" cy="3" r="3"/></g>
<g transform="translate(99,507) scale(4.12)"><circle cx="3" cy="3" r="3"/></g>
<g transform="translate(123,507) scale(4.12)"><circle cx="3" cy="3" r="3"/></g>
<g transform="translate(147,507) scale(4.12)"><circle cx="3" cy="3" r="3"/></g>
<g transform="translate(171,507) scale(4.12)"><circle cx="3" cy="3" r="3"/></g>
<g transform="translate(195,507) scale(4.12)"><circle cx="3" cy="3" r="3"/></g>
<g transform="translate(219,507) scale(4.12)"><circle cx="3" cy="3" r="3"/></g>
<g transform="translate(315,507) scale(4.12)"><circle cx="3" cy="3" r="3"/></g>
<g transform="translate(363,507) scale(4.12)"><circle cx="3" cy="3" r="3"/></g>
<g transform="translate(387,507) scale(4.12)"><circle cx="3" cy="3" r="3"/></g>
<g transform="translate(555,507) scale(4.12)"><circle cx="3" cy="3" r="3"/></g>
<g transform="translate(579,507) scale(4.12)"><circle cx="3" cy="3" r="3"/></g>
<g transform="translate(603,507) scale(4.12)"><circle cx="3" cy="3" r="3"/></g>
<g transform="translate(651,507) scale(4.12)"><circle cx="3" cy="3" r="3"/></g>
<g transform="translate(675,507) scale(4.12)"><circle cx="3" cy="3" r="3"/></g>
<g transform="translate(723,507) scale(4.12)"><circle cx="3" cy="3" r="3"/></g>
<g transform="translate(867,507) scale(4.12)"><circle cx="3" cy="3" r="3"/></g>
<g transform="translate(99,531) scale(4.12)"><circle cx="3" cy="3" r="3"/></g>
<g transform="translate(147,531) scale(4.12)"><circle cx="3" cy="3" r="3"/></g>
<g transform="translate(171,531) scale(4.12)"><circle cx="3" cy="3" r="3"/></g>
<g transform="translate(195,531) scale(4.12)"><circle cx="3" cy="3" r="3"/></g>
<g transform="translate(219,531) scale(4.12)"><circle cx="3" cy="3" r="3"/></g>
<g transform="translate(243,531) scale(4.12)"><circle cx="3" cy="3" r="3"/></g>
<g transform="translate(315,531) scale(4.12)"><circle cx="3" cy="3" r="3"/></g>
<g transform="translate(339,531) scale(4.12)"><circle cx="3" cy="3" r="3"/></g>
<g transform="translate(411,531) scale(4.12)"><circle cx="3" cy="3" r="3"/></g>
<g transform="translate(555,531) scale(4.12)"><circle cx="3" cy="3" r="3"/></g>
<g transform="translate(579,531) scale(4.12)"><circle cx="3" cy="3" r="3"/></g>
<g transform="translate(603,531) scale(4.12)"><circle cx="3" cy="3" r="3"/></g>
<g transform="translate(627,531) scale(4.12)"><circle cx="3" cy="3" r="3"/></g>
<g transform="translate(819,531) scale(4.12)"><circle cx="3" cy="3" r="3"/></g>
<g transform="translate(843,531) scale(4.12)"><circle cx="3" cy="3" r="3"/></g>
<g transform="translate(123,555) scale(4.12)"><circle cx="3" cy="3" r="3"/></g>
<g transform="translate(171,555) scale(4.12)"><circle cx="3" cy="3" r="3"/></g>
<g transform="translate(219,555) scale(4.12)"><circle cx="3" cy="3" r="3"/></g>
<g transform="translate(267,555) scale(4.12)"><circle cx="3" cy="3" r="3"/></g>
<g transform="translate(291,555) scale(4.12)"><circle cx="3" cy="3" r="3"/></g>
<g transform="translate(363,555) scale(4.12)"><circle cx="3" cy="3" r="3"/></g>
<g transform="translate(387,555) scale(4.12)"><circle cx="3" cy="3" r="3"/></g>
<g transform="translate(435,555) scale(4.12)"><circle cx="3" cy="3" r="3"/></g>
<g transform="translate(507,555) scale(4.12)"><circle cx="3" cy="3" r="3"/></g>
<g transform="translate(603,555) scale(4.12)"><circle cx="3" cy="3" r="3"/></g>
<g transform="translate(627,555) scale(4.12)"><circle cx="3" cy="3" r="3"/></g>
<g transform="translate(651,555) scale(4.12)"><circle cx="3" cy="3" r="3"/></g>
<g transform="translate(675,555) scale(4.12)"><circle cx="3" cy="3" r="3"/></g>
<g transform="translate(699,555) scale(4.12)"><circle cx="3" cy="3" r="3"/></g>
<g transform="translate(747,555) scale(4.12)"><circle cx="3" cy="3" r="3"/></g>
<g transform="translate(795,555) scale(4.12)"><circle cx="3" cy="3" r="3"/></g>
<g transform="translate(819,555) scale(4.12)"><circle cx="3" cy="3" r="3"/></g>
<g transform="translate(867,555) scale(4.12)"><circle cx="3" cy="3" r="3"/></g>
<g transform="translate(99,579) scale(4.12)"><circle cx="3" cy="3" r="3"/></g>
<g transform="translate(171,579) scale(4.12)"><circle cx="3" cy="3" r="3"/></g>
<g transform="translate(195,579) scale(4.12)"><circle cx="3" cy="3" r="3"/></g>
<g transform="translate(243,579) scale(4.12)"><circle cx="3" cy="3" r="3"/></g>
<g transform="translate(267,579) scale(4.12)"><circle cx="3" cy="3" r="3"/></g>
<g transform="translate(363,579) scale(4.12)"><circle cx="3" cy="3" r="3"/></g>
<g transform="translate(483,579) scale(4.12)"><circle cx="3" cy="3" r="3"/></g>
<g transform="translate(507,579) scale(4.12)"><circle cx="3" cy="3" r="3"/></g>
<g transform="translate(531,579) scale(4.12)"><circle cx="3" cy="3" r="3"/></g>
<g transform="translate(555,579) scale(4.12)"><circle cx="3" cy="3" r="3"/></g>
<g transform="translate(627,579) scale(4.12)"><circle cx="3" cy="3" r="3"/></g>
<g transform="translate(675,579) scale(4.12)"><circle cx="3" cy="3" r="3"/></g>
<g transform="translate(771,579) scale(4.12)"><circle cx="3" cy="3" r="3"/></g>
<g transform="translate(795,579) scale(4.12)"><circle cx="3" cy="3" r="3"/></g>
<g transform="translate(843,579) scale(4.12)"><circle cx="3" cy="3" r="3"/></g>
<g transform="translate(867,579) scale(4.12)"><circle cx="3" cy="3" r="3"/></g>
<g transform="translate(99,603) scale(4.12)"><circle cx="3" cy="3" r="3"/></g>
<g transform="translate(123,603) scale(4.12)"><circle cx="3" cy="3" r="3"/></g>
<g transform="translate(147,603) scale(4.12)"><circle cx="3" cy="3" r="3"/></g>
<g transform="translate(171,603) scale(4.12)"><circle cx="3" cy="3" r="3"/></g>
<g transform="translate(195,603) scale(4.12)"><circle cx="3" cy="3" r="3"/></g>
<g transform="translate(219,603) scale(4.12)"><circle cx="3" cy="3" r="3"/></g>
<g transform="translate(267,603) scale(4.12)"><circle cx="3" cy="3" r="3"/></g>
<g transform="translate(339,603) scale(4.12)"><circle cx="3" cy="3" r="3"/></g>
<g transform="translate(507,603) scale(4.12)"><circle cx="3" cy="3" r="3"/></g>
<g transform="translate(531,603) scale(4.12)"><circle cx="3" cy="3" r="3"/></g>
<g transform="translate(555,603) scale(4.12)"><circle cx="3" cy="3" r="3"/></g>
<g transform="translate(579,603) scale(4.12)"><circle cx="3" cy="3" r="3"/></g>
<g transform="translate(699,603) scale(4.12)"><circle cx="3" cy="3" r="3"/></g>
<g transform="translate(795,603) scale(4.12)"><circle cx="3" cy="3" r="3"/></g>
<g transform="translate(819,603) scale(4.12)"><circle cx="3" cy="3" r="3"/></g>
<g transform="translate(867,603) scale(4.12)"><circle cx="3" cy="3" r="3"/></g>
<g transform="translate(99,627) scale(4.12)"><circle cx="3" cy="3" r="3"/></g>
<g transform="translate(147,627) scale(4.12)"><circle cx="3" cy="3" r="3"/></g>
<g transform="translate(171,627) scale(4.12)"><circle cx="3" cy="3" r="3"/></g>
<g transform="translate(243,627) scale(4.12)"><circle cx="3" cy="3" r="3"/></g>
<g transform="translate(267,627) scale(4.12)"><circle cx="3" cy="3" r="3"/></g>
<g transform="translate(315,627) scale(4.12)"><circle cx="3" cy="3" r="3"/></g>
<g transform="translate(339,627) scale(4.12)"><circle cx="3" cy="3" r="3"/></g>
<g transform="translate(363,627) scale(4.12)"><circle cx="3" cy="3" r="3"/></g>
<g transform="translate(459,627) scale(4.12)"><circle cx="3" cy="3" r="3"/></g>
<g transform="translate(531,627) scale(4.12)"><circle cx="3" cy="3" r="3"/></g>
<g transform="translate(555,627) scale(4.12)"><circle cx="3" cy="3" r="3"/></g>
<g transform="translate(651,627) scale(4.12)"><circle cx="3" cy="3" r="3"/></g>
<g transform="translate(675,627) scale(4.12)"><circle cx="3" cy="3" r="3"/></g>
<g transform="translate(747,627) scale(4.12)"><circle cx="3" cy="3" r="3"/></g>
<g transform="translate(795,627) scale(4.12)"><circle cx="3" cy="3" r="3"/></g>
<g transform="translate(819,627) scale(4.12)"><circle cx="3" cy="3" r="3"/></g>
<g transform="translate(843,627) scale(4.12)"><circle cx="3" cy="3" r="3"/></g>
<g transform="translate(99,651) scale(4.12)"><circle cx="3" cy="3" r="3"/></g>
<g transform="translate(147,651) scale(4.12)"><circle cx="3" cy="3" r="3"/></g>
<g transform="translate(171,651) scale(4.12)"><circle cx="3" cy="3" r="3"/></g>
<g transform="translate(339,651) scale(4.12)"><circle cx="3" cy="3" r="3"/></g>
<g transform="translate(387,651) scale(4.12)"><circle cx="3" cy="3" r="3"/></g>
<g transform="translate(435,651) scale(4.12)"><circle cx="3" cy="3" r="3"/></g>
<g transform="translate(459,651) scale(4.12)"><circle cx="3" cy="3" r="3"/></g>
<g transform="translate(483,651) scale(4.12)"><circle cx="3" cy="3" r="3"/></g>
<g transform="translate(507,651) scale(4.12)"><circle cx="3" cy="3" r="3"/></g>
<g transform="translate(555,651) scale(4.12)"><circle cx="3" cy="3" r="3"/></g>
<g transform="translate(579,651) scale(4.12)"><circle cx="3" cy="3" r="3"/></g>
<g transform="translate(603,651) scale(4.12)"><circle cx="3" cy="3" r="3"/></g>
<g transform="translate(651,651) scale(4.12)"><circle cx="3" cy="3" r="3"/></g>
<g transform="translate(795,651) scale(4.12)"><circle cx="3" cy="3" r="3"/></g>
<g transform="translate(819,651) scale(4.12)"><circle cx="3" cy="3" r="3"/></g>
<g transform="translate(99,675) scale(4.12)"><circle cx="3" cy="3" r="3"/></g>
<g transform="translate(147,675) scale(4.12)"><circle cx="3" cy="3" r="3"/></g>
<g transform="translate(171,675) scale(4.12)"><circle cx="3" cy="3" r="3"/></g>
<g transform="translate(243,675) scale(4.12)"><circle cx="3" cy="3" r="3"/></g>
<g transform="translate(267,675) scale(4.12)"><circle cx="3" cy="3" r="3"/></g>
<g transform="translate(315,675) scale(4.12)"><circle cx="3" cy="3" r="3"/></g>
<g transform="translate(339,675) scale(4.12)"><circle cx="3" cy="3" r="3"/></g>
<g transform="translate(363,675) scale(4.12)"><circle cx="3" cy="3" r="3"/></g>
<g transform="translate(435,675) scale(4.12)"><circle cx="3" cy="3" r="3"/></g>
<g transform="translate(483,675) scale(4.12)"><circle cx="3" cy="3" r="3"/></g>
<g transform="translate(555,675) scale(4.12)"><circle cx="3" cy="3" r="3"/></g>
<g transform="translate(651,675) scale(4.12)"><circle cx="3" cy="3" r="3"/></g>
<g transform="translate(675,675) scale(4.12)"><circle cx="3" cy="3" r="3"/></g>
<g transform="translate(699,675) scale(4.12)"><circle cx="3" cy="3" r="3"/></g>
<g transform="translate(723,675) scale(4.12)"><circle cx="3" cy="3" r="3"/></g>
<g transform="translate(747,675) scale(4.12)"><circle cx="3" cy="3" r="3"/></g>
<g transform="translate(771,675) scale(4.12)"><circle cx="3" cy="3" r="3"/></g>
<g transform="translate(843,675) scale(4.12)"><circle cx="3" cy="3" r="3"/></g>
<g transform="translate(291,699) scale(4.12)"><circle cx="3" cy="3" r="3"/></g>
<g transform="translate(363,699) scale(4.12)"><circle cx="3" cy="3" r="3"/></g>
<g transform="translate(387,699) scale(4.12)"><circle cx="3" cy="3" r="3"/></g>
<g transform="translate(435,699) scale(4.12)"><circle cx="3" cy="3" r="3"/></g>
<g transform="translate(483,699) scale(4.12)"><circle cx="3" cy="3" r="3"/></g>
<g transform="translate(579,699) scale(4.12)"><circle cx="3" cy="3" r="3"/></g>
<g transform="translate(603,699) scale(4.12)"><circle cx="3" cy="3" r="3"/></g>
<g transform="translate(675,699) scale(4.12)"><circle cx="3" cy="3" r="3"/></g>
<g transform="translate(771,699) scale(4.12)"><circle cx="3" cy="3" r="3"/></g>
<g transform="translate(819,699) scale(4.12)"><circle cx="3" cy="3" r="3"/></g>
<g transform="translate(843,699) scale(4.12)"><circle cx="3" cy="3" r="3"/></g>
<g transform="translate(867,699) scale(4.12)"><circle cx="3" cy="3" r="3"/></g>
<g transform="translate(339,723) scale(4.12)"><circle cx="3" cy="3" r="3"/></g>
<g transform="translate(363,723) scale(4.12)"><circle cx="3" cy="3" r="3"/></g>
<g transform="translate(411,723) scale(4.12)"><circle cx="3" cy="3" r="3"/></g>
<g transform="translate(435,723) scale(4.12)"><circle cx="3" cy="3" r="3"/></g>
<g transform="translate(531,723) scale(4.12)"><circle cx="3" cy="3" r="3"/></g>
<g transform="translate(555,723) scale(4.12)"><circle cx="3" cy="3" r="3"/></g>
<g transform="translate(579,723) scale(4.12)"><circle cx="3" cy="3" r="3"/></g>
<g transform="translate(603,723) scale(4.12)"><circle cx="3" cy="3" r="3"/></g>
<g transform="translate(651,723) scale(4.12)"><circle cx="3" cy="3" r="3"/></g>
<g transform="translate(675,723) scale(4.12)"><circle cx="3" cy="3" r="3"/></g>
<g transform="translate(723,723) scale(4.12)"><circle cx="3" cy="3" r="3"/></g>
<g transform="translate(771,723) scale(4.12)"><circle cx="3" cy="3" r="3"/></g>
<g transform="translate(795,723) scale(4.12)"><circle cx="3" cy="3" r="3"/></g>
<g transform="translate(843,723) scale(4.12)"><circle cx="3" cy="3" r="3"/></g>
<g transform="translate(339,747) scale(4.12)"><circle cx="3" cy="3" r="3"/></g>
<g transform="translate(363,747) scale(4.12)"><circle cx="3" cy="3" r="3"/></g>
<g transform="translate(459,747) scale(4.12)"><circle cx="3" cy="3" r="3"/></g>
<g transform="translate(507,747) scale(4.12)"><circle cx="3" cy="3" r="3"/></g>
<g transform="translate(531,747) scale(4.12)"><circle cx="3" cy="3" r="3"/></g>
<g transform="translate(555,747) scale(4.12)"><circle cx="3" cy="3" r="3"/></g>
<g transform="translate(603,747) scale(4.12)"><circle cx="3" cy="3" r="3"/></g>
<g transform="translate(627,747) scale(4.12)"><circle cx="3" cy="3" r="3"/></g>
<g transform="translate(651,747) scale(4.12)"><circle cx="3" cy="3" r="3"/></g>
<g transform="translate(675,747) scale(4.12)"><circle cx="3" cy="3" r="3"/></g>
<g transform="translate(771,747) scale(4.12)"><circle cx="3" cy="3" r="3"/></g>
<g transform="translate(795,747) scale(4.12)"><circle cx="3" cy="3" r="3"/></g>
<g transform="translate(819,747) scale(4.12)"><circle cx="3" cy="3" r="3"/></g>
<g transform="translate(843,747) scale(4.12)"><circle cx="3" cy="3" r="3"/></g>
<g transform="translate(867,747) scale(4.12)"><circle cx="3" cy="3" r="3"/></g>
<g transform="translate(291,771) scale(4.12)"><circle cx="3" cy="3" r="3"/></g>
<g transform="translate(315,771) scale(4.12)"><circle cx="3" cy="3" r="3"/></g>
<g transform="translate(339,771) scale(4.12)"><circle cx="3" cy="3" r="3"/></g>
<g transform="translate(363,771) scale(4.12)"><circle cx="3" cy="3" r="3"/></g>
<g transform="translate(387,771) scale(4.12)"><circle cx="3" cy="3" r="3"/></g>
<g transform="translate(411,771) scale(4.12)"><circle cx="3" cy="3" r="3"/></g>
<g transform="translate(507,771) scale(4.12)"><circle cx="3" cy="3" r="3"/></g>
<g transform="translate(555,771) scale(4.12)"><circle cx="3" cy="3" r="3"/></g>
<g transform="translate(579,771) scale(4.12)"><circle cx="3" cy="3" r="3"/></g>
<g transform="translate(603,771) scale(4.12)"><circle cx="3" cy="3" r="3"/></g>
<g transform="translate(675,771) scale(4.12)"><circle cx="3" cy="3" r="3"/></g>
<g transform="translate(699,771) scale(4.12)"><circle cx="3" cy="3" r="3"/></g>
<g transform="translate(723,771) scale(4.12)"><circle cx="3" cy="3" r="3"/></g>
<g transform="translate(747,771) scale(4.12)"><circle cx="3" cy="3" r="3"/></g>
<g transform="translate(771,771) scale(4.12)"><circle cx="3" cy="3" r="3"/></g>
<g transform="translate(843,771) scale(4.12)"><circle cx="3" cy="3" r="3"/></g>
<g transform="translate(867,771) scale(4.12)"><circle cx="3" cy="3" r="3"/></g>
<g transform="translate(291,795) scale(4.12)"><circle cx="3" cy="3" r="3"/></g>
<g transform="translate(315,795) scale(4.12)"><circle cx="3" cy="3" r="3"/></g>
<g transform="translate(411,795) scale(4.12)"><circle cx="3" cy="3" r="3"/></g>
<g transform="translate(435,795) scale(4.12)"><circle cx="3" cy="3" r="3"/></g>
<g transform="translate(459,795) scale(4.12)"><circle cx="3" cy="3" r="3"/></g>
<g transform="translate(483,795) scale(4.12)"><circle cx="3" cy="3" r="3"/></g>
<g transform="translate(555,795) scale(4.12)"><circle cx="3" cy="3" r="3"/></g>
<g transform="translate(579,795) scale(4.12)"><circle cx="3" cy="3" r="3"/></g>
<g transform="translate(627,795) scale(4.12)"><circle cx="3" cy="3" r="3"/></g>
<g transform="translate(651,795) scale(4.12)"><circle cx="3" cy="3" r="3"/></g>
<g transform="translate(699,795) scale(4.12)"><circle cx="3" cy="3" r="3"/></g>
<g transform="translate(771,795) scale(4.12)"><circle cx="3" cy="3" r="3"/></g>
<g transform="translate(819,795) scale(4.12)"><circle cx="3" cy="3" r="3"/></g>
<g transform="translate(843,795) scale(4.12)"><circle cx="3" cy="3" r="3"/></g>
<g transform="translate(291,819) scale(4.12)"><circle cx="3" cy="3" r="3"/></g>
<g transform="translate(315,819) scale(4.12)"><circle cx="3" cy="3" r="3"/></g>
<g transform="translate(339,819) scale(4.12)"><circle cx="3" cy="3" r="3"/></g>
<g transform="translate(363,819) scale(4.12)"><circle cx="3" cy="3" r="3"/></g>
<g transform="translate(387,819) scale(4.12)"><circle cx="3" cy="3" r="3"/></g>
<g transform="translate(459,819) scale(4.12)"><circle cx="3" cy="3" r="3"/></g>
<g transform="translate(483,819) scale(4.12)"><circle cx="3" cy="3" r="3"/></g>
<g transform="translate(579,819) scale(4.12)"><circle cx="3" cy="3" r="3"/></g>
<g transform="translate(675,819) scale(4.12)"><circle cx="3" cy="3" r="3"/></g>
<g transform="translate(699,819) scale(4.12)"><circle cx="3" cy="3" r="3"/></g>
<g transform="translate(723,819) scale(4.12)"><circle cx="3" cy="3" r="3"/></g>
<g transform="translate(795,819) scale(4.12)"><circle cx="3" cy="3" r="3"/></g>
<g transform="translate(339,843) scale(4.12)"><circle cx="3" cy="3" r="3"/></g>
<g transform="translate(411,843) scale(4.12)"><circle cx="3" cy="3" r="3"/></g>
<g transform="translate(435,843) scale(4.12)"><circle cx="3" cy="3" r="3"/></g>
<g transform="translate(459,843) scale(4.12)"><circle cx="3" cy="3" r="3"/></g>
<g transform="translate(531,843) scale(4.12)"><circle cx="3" cy="3" r="3"/></g>
<g transform="translate(603,843) scale(4.12)"><circle cx="3" cy="3" r="3"/></g>
<g transform="translate(627,843) scale(4.12)"><circle cx="3" cy="3" r="3"/></g>
<g transform="translate(651,843) scale(4.12)"><circle cx="3" cy="3" r="3"/></g>
<g transform="translate(699,843) scale(4.12)"><circle cx="3" cy="3" r="3"/></g>
<g transform="translate(723,843) scale(4.12)"><circle cx="3" cy="3" r="3"/></g>
<g transform="translate(747,843) scale(4.12)"><circle cx="3" cy="3" r="3"/></g>
<g transform="translate(819,843) scale(4.12)"><circle cx="3" cy="3" r="3"/></g>
<g transform="translate(315,867) scale(4.12)"><circle cx="3" cy="3" r="3"/></g>
<g transform="translate(339,867) scale(4.12)"><circle cx="3" cy="3" r="3"/></g>
<g transform="translate(363,867) scale(4.12)"><circle cx="3" cy="3" r="3"/></g>
<g transform="translate(387,867) scale(4.12)"><circle cx="3" cy="3" r="3"/></g>
<g transform="translate(411,867) scale(4.12)"><circle cx="3" cy="3" r="3"/></g>
<g transform="translate(435,867) scale(4.12)"><circle cx="3" cy="3" r="3"/></g>
<g transform="translate(459,867) scale(4.12)"><circle cx="3" cy="3" r="3"/></g>
<g transform="translate(531,867) scale(4.12)"><circle cx="3" cy="3" r="3"/></g>
<g transform="translate(627,867) scale(4.12)"><circle cx="3" cy="3" r="3"/></g>
<g transform="translate(651,867) scale(4.12)"><circle cx="3" cy="3" r="3"/></g>
<g transform="translate(675,867) scale(4.12)"><circle cx="3" cy="3" r="3"/></g>
<g transform="translate(699,867) scale(4.12)"><circle cx="3" cy="3" r="3"/></g>
<g transform="translate(723,867) scale(4.12)"><circle cx="3" cy="3" r="3"/></g>
<g transform="translate(819,867) scale(4.12)"><circle cx="3" cy="3" r="3"/></g>
<g transform="translate(843,867) scale(4.12)"><circle cx="3" cy="3" r="3"/></g>
<g transform="translate(99,99)"><g transform="scale(12)"><path d="M4.5,14h5.1C12,14,14,12,14,9.6V4.5C14,2,12,0,9.5,0H4.4C2,0,0,2,0,4.4v5.1C0,12,2,14,4.5,14z M12,4.8v4.4 c0,1.5-1.3,2.8-2.8,2.8H4.8C3.2,12,2,10.8,2,9.2V4.8C2,3.3,3.3,2,4.8,2h4.4C10.8,2,12,3.2,12,4.8z"/></g></g>
<g transform="translate(723,99)"><g transform="scale(12)"><path d="M4.5,14h5.1C12,14,14,12,14,9.6V4.5C14,2,12,0,9.5,0H4.4C2,0,0,2,0,4.4v5.1C0,12,2,14,4.5,14z M12,4.8v4.4 c0,1.5-1.3,2.8-2.8,2.8H4.8C3.2,12,2,10.8,2,9.2V4.8C2,3.3,3.3,2,4.8,2h4.4C10.8,2,12,3.2,12,4.8z"/></g></g>
<g transform="translate(99,723)"><g transform="scale(12)"><path d="M4.5,14h5.1C12,14,14,12,14,9.6V4.5C14,2,12,0,9.5,0H4.4C2,0,0,2,0,4.4v5.1C0,12,2,14,4.5,14z M12,4.8v4.4 c0,1.5-1.3,2.8-2.8,2.8H4.8C3.2,12,2,10.8,2,9.2V4.8C2,3.3,3.3,2,4.8,2h4.4C10.8,2,12,3.2,12,4.8z"/></g></g>
<g transform="translate(147,147)"><g transform="scale(12)"><path d="M6,1.7v2.7C6,5.2,5.2,6,4.3,6H1.7C0.7,6,0,5.3,0,4.3V1.7C0,0.8,0.8,0,1.7,0h2.7C5.3,0,6,0.7,6,1.7z"/></g></g>
<g transform="translate(771,147)"><g transform="scale(12)"><path d="M6,1.7v2.7C6,5.2,5.2,6,4.3,6H1.7C0.7,6,0,5.3,0,4.3V1.7C0,0.8,0.8,0,1.7,0h2.7C5.3,0,6,0.7,6,1.7z"/></g></g>
<g transform="translate(147,771)"><g transform="scale(12)"><path d="M6,1.7v2.7C6,5.2,5.2,6,4.3,6H1.7C0.7,6,0,5.3,0,4.3V1.7C0,0.8,0.8,0,1.7,0h2.7C5.3,0,6,0.7,6,1.7z"/></g></g>
</g></g></mask></defs><rect x="0" y="0" width="990" height="1237.5" mask="url(#qrmask)" fill="url(#pattern-mask)"/><g transform="translate(129.525,1017.5) scale(1.375)"><path fill="#FFFFFF" d="M8,120l0-69.3l46.8,0l0,13.1l-31.2,0l0,13.6l27.7,0l0,12.8l-27.7,0l0,16.7l33.5,0l0,13.1l-49.1,0z M82.7,109.3q4.1,0,5.8-0.8t1.7-3.1q0-1.8-2.2-3.15t-6.7-3.05q-3.5-1.3-6.35-2.7t-4.85-3.35t-3.1-4.65t-1.1-6.5q0-7.4,5.5-11.7t15.1-4.3q4.8,0,9.2,0.85t7,1.85l-2.6,11.6q-2.6-0.9-5.65-1.6t-6.85-0.7q-7,0-7,3.9q0,0.9,0.3,1.6t1.2,1.35t2.45,1.4t3.95,1.65q4.9,1.8,8.1,3.55t5.05,3.8t2.6,4.55t0.75,5.8q0,7.8-5.85,11.8t-16.55,4q-7,0-11.65-1.2t-6.45-2l2.5-12.1q3.8,1.5,7.8,2.35t7.9,0.85z M113.6,93.7q0-5.7,1.85-10.75t5.35-8.8t8.5-5.95t11.4-2.2q4.2,0,7.7,0.75t6.8,2.15l-3.1,11.9q-2.1-0.8-4.6-1.4t-5.6-0.6q-6.6,0-9.85,4.1t-3.25,10.8q0,7.1,3.05,11t10.65,3.9q2.7,0,5.8-0.5t5.7-1.6l2.1,12.2q-2.6,1.1-6.5,1.9t-8.6,0.8q-7.2,0-12.4-2.15t-8.55-5.85t-4.9-8.75t-1.55-10.95z M186.2,109.6q2.2,0,4.2-0.1t3.2-0.3l0-11.3q-0.9-0.2-2.7-0.4t-3.3-0.2q-2.1,0-3.95,0.25t-3.25,0.95t-2.2,1.9t-0.8,3q0,3.5,2.35,4.85t6.45,1.35z M185,66q6.6,0,11,1.5t7.05,4.3t3.75,6.8t1.1,8.9l0,31q-3.2,0.7-8.9,1.65t-13.8,0.95q-5.1,0-9.25-0.9t-7.15-2.95t-4.6-5.35t-1.6-8.1q0-4.6,1.85-7.8t4.95-5.1t7.1-2.75t8.3-0.85q2.9,0,5.15,0.25t3.65,0.65l0-1.4q0-3.8-2.3-6.1t-8-2.3q-3.8,0-7.5,0.55t-6.4,1.55l-1.9-12q1.3-0.4,3.25-0.85t4.25-0.8t4.85-0.6t5.15-0.25z M221.4,69.2q3.8-1.1,9.8-2.05t12.6-0.95q6.7,0,11.15,1.75t7.05,4.95t3.7,7.6t1.1,9.8l0,29.7l-14.9,0l0-27.9q0-7.2-1.9-10.2t-7.1-3q-1.6,0-3.4,0.15t-3.2,0.35l0,40.6l-14.9,0l0-50.8z M277.8,94.1q0-7,2.15-12.25t5.65-8.75t8.05-5.3t9.35-1.8q11.2,0,17.7,6.85t6.5,20.15q0,1.3-0.1,2.85t-0.2,2.75l-33.8,0q0.5,4.6,4.3,7.3t10.2,2.7q4.1,0,8.05-0.75t6.45-1.85l2,12.1q-1.2,0.6-3.2,1.2t-4.45,1.05t-5.25,0.75t-5.6,0.3q-7.1,0-12.35-2.1t-8.7-5.75t-5.1-8.65t-1.65-10.8z M312.8,88.4q-0.1-1.9-0.65-3.7t-1.7-3.2t-2.9-2.3t-4.35-0.9q-2.5,0-4.3,0.85t-3,2.25t-1.85,3.25t-0.95,3.75l19.7,0z M315.1,48.5l-16.5,13.9l-6.8-6.1l14.2-16.2z M358.8,109.6q2.2,0,4.2-0.1t3.2-0.3l0-11.3q-0.9-0.2-2.7-0.4t-3.3-0.2q-2.1,0-3.95,0.25t-3.25,0.95t-2.2,1.9t-0.8,3q0,3.5,2.35,4.85t6.45,1.35z M357.6,66q6.6,0,11,1.5t7.05,4.3t3.75,6.8t1.1,8.9l0,31q-3.2,0.7-8.9,1.65t-13.8,0.95q-5.1,0-9.25-0.9t-7.15-2.95t-4.6-5.35t-1.6-8.1q0-4.6,1.85-7.8t4.95-5.1t7.1-2.75t8.3-0.85q2.9,0,5.15,0.25t3.65,0.65l0-1.4q0-3.8-2.3-6.1t-8-2.3q-3.8,0-7.5,0.55t-6.4,1.55l-1.9-12q1.3-0.4,3.25-0.85t4.25-0.8t4.85-0.6t5.15-0.25z M422.9,92.1q0-7.2-1.85-10.2t-6.35-3q-1.4,0-2.9,0.15t-2.9,0.35l0,40.6l-14.9,0l0-50.8q1.9-0.5,4.45-1.05t5.4-1t5.85-0.7t5.9-0.25q5.7,0,9.25,1.45t5.85,3.45q3.2-2.3,7.35-3.6t7.65-1.3q6.3,0,10.35,1.75t6.45,4.95t3.3,7.6t0.9,9.8l0,29.7l-14.9,0l0-27.9q0-7.2-1.85-10.2t-6.35-3q-1.2,0-3.35,0.6t-3.55,1.5q0.7,2.3,0.9,4.85t0.2,5.45l0,28.7l-14.9,0l0-27.9z M477.7,94.1q0-7,2.15-12.25t5.65-8.75t8.05-5.3t9.35-1.8q11.2,0,17.7,6.85t6.5,20.15q0,1.3-0.1,2.85t-0.2,2.75l-33.8,0q0.5,4.6,4.3,7.3t10.2,2.7q4.1,0,8.05-0.75t6.45-1.85l2,12.1q-1.2,0.6-3.2,1.2t-4.45,1.05t-5.25,0.75t-5.6,0.3q-7.1,0-12.35-2.1t-8.7-5.75t-5.1-8.65t-1.65-10.8z M512.7,88.4q-0.1-1.9-0.65-3.7t-1.7-3.2t-2.9-2.3t-4.35-0.9q-2.5,0-4.3,0.85t-3,2.25t-1.85,3.25t-0.95,3.75l19.7,0z"/></g></svg>
